<?xml version="1.0" encoding="utf-8"?>
<svg version="1.1" xmlns:xlink="http://www.w3.org/1999/xlink" width="12px" height="12px" xmlns="http://www.w3.org/2000/svg">
  <g transform="matrix(1 0 0 1 -694 -821 )">
    <path d="M 700 821  C 703.36 821  706 823.64  706 827  C 706 830.36  703.36 833  700 833  C 696.64 833  694 830.36  694 827  C 694 823.64  696.64 821  700 821  Z " fill-rule="nonzero" fill="#ffffff" stroke="none" />
    <path d="M 700 821.5  C 703.08 821.5  705.5 823.92  705.5 827  C 705.5 830.08  703.08 832.5  700 832.5  C 696.92 832.5  694.5 830.08  694.5 827  C 694.5 823.92  696.92 821.5  700 821.5  Z " stroke-width="1" stroke="#797979" fill="none" />
  </g>
</svg>