<?xml version="1.0" encoding="utf-8"?>
<svg version="1.1" xmlns:xlink="http://www.w3.org/1999/xlink" width="12px" height="12px" xmlns="http://www.w3.org/2000/svg">
  <g transform="matrix(1 0 0 1 -730 -821 )">
    <path d="M 736 821  C 739.36 821  742 823.64  742 827  C 742 830.36  739.36 833  736 833  C 732.64 833  730 830.36  730 827  C 730 823.64  732.64 821  736 821  Z " fill-rule="nonzero" fill="#000000" stroke="none" />
    <path d="M 736 821.5  C 739.08 821.5  741.5 823.92  741.5 827  C 741.5 830.08  739.08 832.5  736 832.5  C 732.92 832.5  730.5 830.08  730.5 827  C 730.5 823.92  732.92 821.5  736 821.5  Z " stroke-width="1" stroke="#797979" fill="none" />
  </g>
</svg>