<?xml version="1.0" encoding="utf-8"?>
<svg version="1.1" xmlns:xlink="http://www.w3.org/1999/xlink" width="20px" height="20px" preserveAspectRatio="xMinYMid meet" viewBox="459 215  20 18" xmlns="http://www.w3.org/2000/svg">
  <path d="M 58 241  L 65 241  A 5 5 0 0 0 70 236 L 70 229  A 5 5 0 0 1 75 224 L 196.24 224  A 0.240000000000009 0.240000000000009 0 0 1 196.48 224.24 A 0.240000000000009 0.240000000000009 0 0 0 196.72 224.48 L 459.76 224.48  A 0.240000000000009 0.240000000000009 0 0 0 460 224.24 A 0.240000000000009 0.240000000000009 0 0 1 460.24 224 L 469 224  " stroke-width="2" stroke="#6666ff" fill="none" />
  <path d="M 463.892893218813 219.707106781187  L 468.185786437627 224  L 463.892893218813 228.292893218813  L 465.307106781187 229.707106781187  L 470.307106781187 224.707106781187  L 471.014213562373 224  L 470.307106781187 223.292893218813  L 465.307106781187 218.292893218813  L 463.892893218813 219.707106781187  Z " fill-rule="nonzero" fill="#6666ff" stroke="none" />
</svg>