<?xml version="1.0" encoding="utf-8"?>
<svg version="1.1" xmlns:xlink="http://www.w3.org/1999/xlink" width="20px" height="20px" preserveAspectRatio="xMinYMid meet" viewBox="988 237  20 18" xmlns="http://www.w3.org/2000/svg">
  <path d="M 586 252  L 591 252  A 5 5 0 0 0 596 247 L 596 233  A 5 5 0 0 1 601 228 L 985 228  A 5 5 0 0 1 990 233 L 990 241  A 5 5 0 0 0 995 246 L 998 246  " stroke-width="2" stroke="#6666ff" fill="none" />
  <path d="M 992.892893218813 241.707106781187  L 997.185786437627 246  L 992.892893218813 250.292893218813  L 994.307106781187 251.707106781187  L 999.307106781187 246.707106781187  L 1000.01421356237 246  L 999.307106781187 245.292893218813  L 994.307106781187 240.292893218813  L 992.892893218813 241.707106781187  Z " fill-rule="nonzero" fill="#6666ff" stroke="none" />
</svg>