<?xml version="1.0" encoding="utf-8"?>
<svg version="1.1" xmlns:xlink="http://www.w3.org/1999/xlink" width="21px" height="10px" preserveAspectRatio="xMinYMid meet" viewBox="415 677  21 8" xmlns="http://www.w3.org/2000/svg">
  <path d="M 153 683  A 1 1 0 0 1 154 682 L 295 682  A 5 5 0 0 1 300 687 L 300 695  A 5 5 0 0 0 305 700 L 415 700  A 5 5 0 0 0 420 695 L 420 686  A 5 5 0 0 1 425 681 L 434 681  " stroke-width="2" stroke="#6666ff" fill="none" />
  <path d="M 428.892893218813 676.707106781187  L 433.185786437627 681  L 428.892893218813 685.292893218813  L 430.307106781187 686.707106781187  L 435.307106781187 681.707106781187  L 436.014213562373 681  L 435.307106781187 680.292893218813  L 430.307106781187 675.292893218813  L 428.892893218813 676.707106781187  Z " fill-rule="nonzero" fill="#6666ff" stroke="none" />
</svg>