<?xml version="1.0" encoding="utf-8"?>
<svg version="1.1" xmlns:xlink="http://www.w3.org/1999/xlink" width="18px" height="18px" xmlns="http://www.w3.org/2000/svg">
  <g transform="matrix(1 0 0 1 -66 -390 )">
    <path d="M 9.86399999999999 4.85875862068968  C 10.2711724137931 4.61048275862072  10.7379310344828 4.49131034482758  11.2146206896551 4.49131034482758  C 12.6546206896552 4.49131034482758  13.8264827586207 5.57379310344828  13.8264827586207 6.91448275862069  C 13.8264827586207 7.33158620689653  13.7073103448276 7.73875862068962  13.4888275862069 8.10620689655173  C 13.1611034482759 8.6424827586207  12.6347586206897 9.03972413793105  11.9991724137931 9.22841379310341  C 11.8303448275862 9.27806896551721  11.7012413793104 9.29793103448276  11.5820689655172 9.29793103448276  C 11.304 9.29793103448276  11.0855172413793 9.07944827586209  11.0855172413793 8.80137931034483  C 11.0855172413793 8.52331034482756  11.304 8.3048275862069  11.5820689655172 8.3048275862069  C 11.6019310344828 8.3048275862069  11.6416551724138 8.3048275862069  11.6913103448276 8.2849655172414  C 12.1183448275862 8.16579310344832  12.456 7.9175172413793  12.6446896551724 7.5897931034483  C 12.7737931034483 7.38124137931038  12.8333793103448 7.15282758620685  12.8333793103448 6.91448275862069  C 12.8333793103448 6.12993103448275  12.1084137931034 5.4844137931035  11.2245517241379 5.4844137931035  C 10.9166896551724 5.4844137931035  10.6187586206897 5.56386206896548  10.3506206896552 5.71282758620686  C 9.88386206896553 5.98096551724137  9.60579310344831 6.42786206896551  9.60579310344831 6.91448275862069  L 9.60579310344831 11.0755862068965  C 9.60579310344831 11.919724137931  9.13903448275863 12.6943448275862  8.36441379310345 13.1313103448276  C 7.94731034482756 13.3696551724138  7.48055172413792 13.4888275862069  7.0038620689655 13.4888275862069  C 5.56386206896553 13.4888275862069  4.392 12.4063448275862  4.392 11.0656551724138  C 4.392 10.6485517241379  4.51117241379309 10.2413793103448  4.72965517241379 9.87393103448272  C 5.05737931034483 9.3376551724138  5.58372413793107 8.9404137931034  6.21931034482758 8.75172413793109  C 6.39806896551724 8.70206896551724  6.51724137931038 8.68220689655175  6.63641379310343 8.68220689655175  C 6.91448275862069 8.68220689655175  7.13296551724139 8.90068965517241  7.13296551724139 9.17875862068968  C 7.13296551724139 9.45682758620688  6.91448275862069 9.67531034482761  6.63641379310343 9.67531034482761  C 6.61655172413793 9.67531034482761  6.5768275862069 9.67531034482761  6.52717241379308 9.6951724137931  C 6.10013793103448 9.82427586206893  5.76248275862069 10.072551724138  5.57379310344828 10.3903448275862  C 5.44468965517244 10.5988965517241  5.38510344827587 10.8273103448276  5.38510344827587 11.0656551724138  C 5.38510344827587 11.8502068965518  6.11006896551723 12.495724137931  7.0038620689655 12.495724137931  C 7.31172413793105 12.495724137931  7.60965517241381 12.416275862069  7.87779310344828 12.2673103448276  C 8.34455172413796 11.9991724137931  8.62262068965518 11.5522758620689  8.62262068965518 11.0656551724138  L 8.62262068965518 6.91448275862069  C 8.62262068965518 6.07034482758621  9.08937931034485 5.29572413793102  9.86399999999999 4.85875862068968  Z M 9.05958620689657 1.01544827586213  C 4.67006896551726 1.01544827586213  1.11475862068966 4.57075862068967  1.11475862068966 8.96027586206895  C 1.11475862068966 13.3497931034483  4.67006896551726 16.9051034482759  9.05958620689657 16.9051034482759  C 13.4491034482758 16.9051034482759  17.0044137931034 13.3497931034483  17.0044137931034 8.96027586206895  C 17.0044137931034 4.57075862068967  13.4491034482758 1.01544827586213  9.05958620689657 1.01544827586213  Z M 9.05958620689657 17.8982068965517  C 4.12386206896552 17.8982068965517  0.121655172413824 13.896  0.121655172413824 8.96027586206895  C 0.121655172413824 4.02455172413795  4.12386206896552 0.0223448275862097  9.05958620689657 0.0223448275862097  C 13.9953103448276 0.0223448275862097  17.9975172413793 4.02455172413795  17.9975172413793 8.96027586206895  C 17.9975172413793 13.896  13.9953103448276 17.8982068965517  9.05958620689657 17.8982068965517  Z " fill-rule="nonzero" fill="#aeaeae" stroke="none" transform="matrix(1 0 0 1 66 390 )" />
  </g>
</svg>