<?xml version="1.0" encoding="utf-8"?>
<svg version="1.1" xmlns:xlink="http://www.w3.org/1999/xlink" width="10px" height="67.75px" preserveAspectRatio="xMidYMin meet" viewBox="436 199.25  8 67.75" xmlns="http://www.w3.org/2000/svg">
  <path d="M 56 262  L 61 262  A 5 5 0 0 0 66 257 L 66 209.25  A 5 5 0 0 1 71 204.25 L 435 204.25  A 5 5 0 0 1 440 209.25 L 440 257  A 5 5 0 0 0 445 262 L 455 262  " stroke-width="2" stroke="#6666ff" fill="none" />
  <path d="M 449.892893218813 257.707106781187  L 454.185786437627 262  L 449.892893218813 266.292893218813  L 451.307106781187 267.707106781187  L 456.307106781187 262.707106781187  L 457.014213562373 262  L 456.307106781187 261.292893218813  L 451.307106781187 256.292893218813  L 449.892893218813 257.707106781187  Z " fill-rule="nonzero" fill="#6666ff" stroke="none" />
</svg>