<?xml version="1.0" encoding="utf-8"?>
<svg version="1.1" xmlns:xlink="http://www.w3.org/1999/xlink" width="386px" height="10px" preserveAspectRatio="xMinYMid meet" viewBox="69 204  386 8" xmlns="http://www.w3.org/2000/svg">
  <path d="M 64 231  L 69 231  A 5 5 0 0 0 74 226 L 74 213  A 5 5 0 0 1 79 208 L 445 208  A 5 5 0 0 1 450 213 L 450 220  A 5 5 0 0 0 455 225 L 459 225  " stroke-width="2" stroke="#6666ff" fill="none" />
  <path d="M 453.892893218813 220.707106781187  L 458.185786437627 225  L 453.892893218813 229.292893218813  L 455.307106781187 230.707106781187  L 460.307106781187 225.707106781187  L 461.014213562373 225  L 460.307106781187 224.292893218813  L 455.307106781187 219.292893218813  L 453.892893218813 220.707106781187  Z " fill-rule="nonzero" fill="#6666ff" stroke="none" />
</svg>