<?xml version="1.0" encoding="utf-8"?>
<svg version="1.1" xmlns:xlink="http://www.w3.org/1999/xlink" width="55px" height="55px" xmlns="http://www.w3.org/2000/svg">
  <g transform="matrix(1 0 0 1 -40 -256 )">
    <path d="M 67.5 256  C 82.9 256  95 268.1  95 283.5  C 95 298.9  82.9 311  67.5 311  C 52.1 311  40 298.9  40 283.5  C 40 268.1  52.1 256  67.5 256  Z " fill-rule="nonzero" fill="#f2f2f2" stroke="none" />
    <path d="M 67.5 256.5  C 82.62 256.5  94.5 268.38  94.5 283.5  C 94.5 298.62  82.62 310.5  67.5 310.5  C 52.38 310.5  40.5 298.62  40.5 283.5  C 40.5 268.38  52.38 256.5  67.5 256.5  Z " stroke-width="1" stroke="#797979" fill="none" />
  </g>
</svg>