<?xml version="1.0" encoding="utf-8"?>
<svg version="1.1" xmlns:xlink="http://www.w3.org/1999/xlink" width="10px" height="28.3076923076923px" preserveAspectRatio="xMidYMin meet" viewBox="406 345  8 28.3076923076923" xmlns="http://www.w3.org/2000/svg">
  <path d="M 106 342  L 115 342  A 5 5 0 0 1 120 347 L 120 363  A 5 5 0 0 0 125 368 L 302.615384615385 368  A 0.15384615384616 0.15384615384616 0 0 1 302.769230769231 368.153846153846 A 0.153846153846132 0.153846153846132 0 0 0 302.923076923077 368.307692307692 L 405 368.307692307692  A 5 5 0 0 0 410 363.307692307692 L 410 355  A 5 5 0 0 1 415 350 L 441 350  " stroke-width="2" stroke="#6666ff" fill="none" />
  <path d="M 435.892893218813 345.707106781187  L 440.185786437627 350  L 435.892893218813 354.292893218813  L 437.307106781187 355.707106781187  L 442.307106781187 350.707106781187  L 443.014213562373 350  L 442.307106781187 349.292893218813  L 437.307106781187 344.292893218813  L 435.892893218813 345.707106781187  Z " fill-rule="nonzero" fill="#6666ff" stroke="none" />
</svg>