<?xml version="1.0" encoding="utf-8"?>
<svg version="1.1" xmlns:xlink="http://www.w3.org/1999/xlink" width="15px" height="10px" preserveAspectRatio="xMinYMid meet" viewBox="245 295  15 8" xmlns="http://www.w3.org/2000/svg">
  <path d="M 245 299  L 250 299  A 5 5 0 0 1 255 304 L 255 304.8  A 5 5 0 0 0 260 309.8 L 405 309.8  A 5 5 0 0 0 410 304.8 L 410 290  A 5 5 0 0 1 415 285 L 441 285  " stroke-width="2" stroke="#6666ff" fill="none" />
  <path d="M 435.892893218813 280.707106781187  L 440.185786437627 285  L 435.892893218813 289.292893218813  L 437.307106781187 290.707106781187  L 442.307106781187 285.707106781187  L 443.014213562373 285  L 442.307106781187 284.292893218813  L 437.307106781187 279.292893218813  L 435.892893218813 280.707106781187  Z " fill-rule="nonzero" fill="#6666ff" stroke="none" />
</svg>