<?xml version="1.0" encoding="utf-8"?>
<svg version="1.1" xmlns:xlink="http://www.w3.org/1999/xlink" width="150px" height="10px" preserveAspectRatio="xMinYMid meet" viewBox="265 365  150 8" xmlns="http://www.w3.org/2000/svg">
  <path d="M 260 342  L 265 342  A 5 5 0 0 1 270 347 L 270 364  A 5 5 0 0 0 275 369 L 405 369  A 5 5 0 0 0 410 364 L 410 355  A 5 5 0 0 1 415 350 L 441 350  " stroke-width="2" stroke="#6666ff" fill="none" />
  <path d="M 435.892893218813 345.707106781187  L 440.185786437627 350  L 435.892893218813 354.292893218813  L 437.307106781187 355.707106781187  L 442.307106781187 350.707106781187  L 443.014213562373 350  L 442.307106781187 349.292893218813  L 437.307106781187 344.292893218813  L 435.892893218813 345.707106781187  Z " fill-rule="nonzero" fill="#6666ff" stroke="none" />
</svg>