<?xml version="1.0" encoding="utf-8"?>
<svg version="1.1" xmlns:xlink="http://www.w3.org/1999/xlink" width="50px" height="37px" xmlns="http://www.w3.org/2000/svg">
  <g transform="matrix(1 0 0 1 -1411 -375 )">
    <path d="M 0.693485403530296 17.7215189873418  C -0.466852149212293 18.9873417721519  0.693485403530296 20.7794752338534  0.693485403530296 20.7794752338534  L 14.6039399560519 35.6372674881262  C 14.6039399560519 35.6372674881262  15.1679601144299 36.1289971742739  15.8227848101266 36.0232067510548  C 16.4170674905319 35.9271972134107  16.8927064496684 35.6372674881262  16.8927064496684 35.6372674881262  L 28.9018656894594 23.7382886108722  L 49.9246534056661 2.90837854128989  C 49.9246534056661 2.90837854128989  50.2532910516224 1.42272486561546  49.5253164556962 0.738396624472557  C 48.6497916470437 -0.0846353271023759  46.9107896323086 0.376732971669696  46.9107896323086 0.376732971669696  C 46.9107896323086 0.376732971669696  27.1472016607369 16.8352129208506  17.265407674951 25.0644528954411  C 16.7845333866762 25.4649095252307  15.8227848101266 26.2658227848101  15.8227848101266 26.2658227848101  L 14.5271822475153 25.2874787507997  L 3.70734917688775 17.1025614303573  C 3.70734917688775 17.1025614303573  1.85382295627294 16.4556962025317  0.693485403530296 17.7215189873418  Z " fill-rule="nonzero" fill="#ffffff" stroke="none" transform="matrix(1 0 0 1 1411 375 )" />
  </g>
</svg>