<?xml version="1.0" encoding="utf-8"?>
<svg version="1.1" xmlns:xlink="http://www.w3.org/1999/xlink" width="46px" height="17px" xmlns="http://www.w3.org/2000/svg">
  <g transform="matrix(1 0 0 1 -554 -698 )">
    <path d="M 555 700  A 1 1 0 0 1 556 699 L 598 699  A 1 1 0 0 1 599 700 L 599 713  A 1 1 0 0 1 598 714 L 556 714  A 1 1 0 0 1 555 713 L 555 700  Z " fill-rule="nonzero" fill="#ffffff" stroke="none" fill-opacity="0" />
    <path d="M 554.5 700  A 1.5 1.5 0 0 1 556 698.5 L 598 698.5  A 1.5 1.5 0 0 1 599.5 700 L 599.5 713  A 1.5 1.5 0 0 1 598 714.5 L 556 714.5  A 1.5 1.5 0 0 1 554.5 713 L 554.5 700  Z " stroke-width="1" stroke-dasharray="9,4" stroke="#ff0000" fill="none" stroke-dashoffset="0.5" />
  </g>
</svg>