<?xml version="1.0" encoding="utf-8"?>
<svg version="1.1" xmlns:xlink="http://www.w3.org/1999/xlink" width="30px" height="30px" xmlns="http://www.w3.org/2000/svg">
  <g transform="matrix(1 0 0 1 -110 -100 )">
    <path d="M 125 100  C 133.4 100  140 106.6  140 115  C 140 123.4  133.4 130  125 130  C 116.6 130  110 123.4  110 115  C 110 106.6  116.6 100  125 100  Z " fill-rule="nonzero" fill="#ffffff" stroke="none" />
    <path d="M 125 100.5  C 133.12 100.5  139.5 106.88  139.5 115  C 139.5 123.12  133.12 129.5  125 129.5  C 116.88 129.5  110.5 123.12  110.5 115  C 110.5 106.88  116.88 100.5  125 100.5  Z " stroke-width="1" stroke="#797979" fill="none" />
  </g>
</svg>