<?xml version="1.0" encoding="utf-8"?>
<svg version="1.1" xmlns:xlink="http://www.w3.org/1999/xlink" width="405px" height="10px" preserveAspectRatio="xMinYMid meet" viewBox="175 615  405 8" xmlns="http://www.w3.org/2000/svg">
  <defs>
    <mask fill="white" id="clip191">
      <path d="M 315 600  L 435 600  L 435 638  L 315 638  Z M 165 600  L 585 600  L 585 638  L 165 638  Z " fill-rule="evenodd" />
    </mask>
  </defs>
  <path d="M 315 619  L 177 619  M 435 619  L 573 619  " stroke-width="2" stroke-dasharray="6,2" stroke="#6666ff" fill="none" />
  <path d="M 567.892893218813 614.707106781187  L 572.185786437627 619  L 567.892893218813 623.292893218813  L 569.307106781187 624.707106781187  L 574.307106781187 619.707106781187  L 575.014213562373 619  L 574.307106781187 618.292893218813  L 569.307106781187 613.292893218813  L 567.892893218813 614.707106781187  Z M 182.107106781187 623.292893218813  L 177.814213562373 619  L 182.107106781187 614.707106781187  L 180.692893218813 613.292893218813  L 175.692893218813 618.292893218813  L 174.985786437627 619  L 175.692893218813 619.707106781187  L 180.692893218813 624.707106781187  L 182.107106781187 623.292893218813  Z " fill-rule="nonzero" fill="#6666ff" stroke="none" mask="url(#clip191)" />
</svg>