<?xml version="1.0" encoding="utf-8"?>
<svg version="1.1" xmlns:xlink="http://www.w3.org/1999/xlink" width="132px" height="70px" xmlns="http://www.w3.org/2000/svg">
  <defs>
    <linearGradient gradientUnits="userSpaceOnUse" x1="564" y1="831" x2="564" y2="901" id="LinearGradient122">
      <stop id="Stop123" stop-color="#ffffff" offset="0" />
      <stop id="Stop124" stop-color="#f2f2f2" offset="0" />
      <stop id="Stop125" stop-color="#e4e4e4" offset="1" />
      <stop id="Stop126" stop-color="#ffffff" offset="1" />
    </linearGradient>
  </defs>
  <g transform="matrix(1 0 0 1 -498 -831 )">
    <path d="M 508.5 900.5  L 629.5 900.5  L 629.5 841.5  L 624.5 841.5  L 624.5 836.5  L 619.5 836.5  L 619.5 831.5  L 498.5 831.5  L 498.5 890.5  L 503.5 890.5  L 503.5 895.5  L 508.5 895.5  L 508.5 900.5  Z " fill-rule="nonzero" fill="url(#LinearGradient122)" stroke="none" />
    <path d="M 508.5 900.5  L 629.5 900.5  L 629.5 841.5  L 624.5 841.5  L 624.5 836.5  L 619.5 836.5  L 619.5 831.5  L 498.5 831.5  L 498.5 890.5  L 503.5 890.5  L 503.5 895.5  L 508.5 895.5  L 508.5 900.5  Z " stroke-width="1" stroke="#797979" fill="none" />
    <path d="M 624.5 842  L 624.5 895.5  L 509 895.5  M 619.5 837  L 619.5 890.5  L 504 890.5  " stroke-width="1" stroke="#797979" fill="none" />
  </g>
</svg>