<?xml version="1.0" encoding="utf-8"?>
<svg version="1.1" xmlns:xlink="http://www.w3.org/1999/xlink" width="117px" height="74px" xmlns="http://www.w3.org/2000/svg">
  <defs>
    <linearGradient gradientUnits="userSpaceOnUse" x1="713.5" y1="1186" x2="713.5" y2="1260" id="LinearGradient144">
      <stop id="Stop145" stop-color="#ffffff" offset="0" />
      <stop id="Stop146" stop-color="#f2f2f2" offset="0" />
      <stop id="Stop147" stop-color="#e4e4e4" offset="1" />
      <stop id="Stop148" stop-color="#ffffff" offset="1" />
    </linearGradient>
  </defs>
  <g transform="matrix(1 0 0 1 -655 -1186 )">
    <path d="M 665.5 1259.5  L 771.5 1259.5  L 771.5 1196.5  L 766.5 1196.5  L 766.5 1191.5  L 761.5 1191.5  L 761.5 1186.5  L 655.5 1186.5  L 655.5 1249.5  L 660.5 1249.5  L 660.5 1254.5  L 665.5 1254.5  L 665.5 1259.5  Z " fill-rule="nonzero" fill="url(#LinearGradient144)" stroke="none" />
    <path d="M 665.5 1259.5  L 771.5 1259.5  L 771.5 1196.5  L 766.5 1196.5  L 766.5 1191.5  L 761.5 1191.5  L 761.5 1186.5  L 655.5 1186.5  L 655.5 1249.5  L 660.5 1249.5  L 660.5 1254.5  L 665.5 1254.5  L 665.5 1259.5  Z " stroke-width="1" stroke="#797979" fill="none" />
    <path d="M 766.5 1197  L 766.5 1254.5  L 666 1254.5  M 761.5 1192  L 761.5 1249.5  L 661 1249.5  " stroke-width="1" stroke="#797979" fill="none" />
  </g>
</svg>