<?xml version="1.0" encoding="utf-8"?>
<svg version="1.1" xmlns:xlink="http://www.w3.org/1999/xlink" width="46px" height="12px" xmlns="http://www.w3.org/2000/svg">
  <g transform="matrix(1 0 0 1 -83 -635 )">
    <path d="M 84 637  A 1 1 0 0 1 85 636 L 127 636  A 1 1 0 0 1 128 637 L 128 645  A 1 1 0 0 1 127 646 L 85 646  A 1 1 0 0 1 84 645 L 84 637  Z " fill-rule="nonzero" fill="#ffffff" stroke="none" fill-opacity="0" />
    <path d="M 83.5 637  A 1.5 1.5 0 0 1 85 635.5 L 127 635.5  A 1.5 1.5 0 0 1 128.5 637 L 128.5 645  A 1.5 1.5 0 0 1 127 646.5 L 85 646.5  A 1.5 1.5 0 0 1 83.5 645 L 83.5 637  Z " stroke-width="1" stroke-dasharray="9,4" stroke="#ff0000" fill="none" stroke-dashoffset="0.5" />
  </g>
</svg>