<?xml version="1.0" encoding="utf-8"?>
<svg version="1.1" xmlns:xlink="http://www.w3.org/1999/xlink" width="50px" height="12px" xmlns="http://www.w3.org/2000/svg">
  <g transform="matrix(1 0 0 1 -139 -635 )">
    <path d="M 140 637  A 1 1 0 0 1 141 636 L 187 636  A 1 1 0 0 1 188 637 L 188 645  A 1 1 0 0 1 187 646 L 141 646  A 1 1 0 0 1 140 645 L 140 637  Z " fill-rule="nonzero" fill="#ffffff" stroke="none" fill-opacity="0" />
    <path d="M 139.5 637  A 1.5 1.5 0 0 1 141 635.5 L 187 635.5  A 1.5 1.5 0 0 1 188.5 637 L 188.5 645  A 1.5 1.5 0 0 1 187 646.5 L 141 646.5  A 1.5 1.5 0 0 1 139.5 645 L 139.5 637  Z " stroke-width="1" stroke-dasharray="9,4" stroke="#ff0000" fill="none" stroke-dashoffset="0.5" />
  </g>
</svg>