<?xml version="1.0" encoding="utf-8"?>
<svg version="1.1" xmlns:xlink="http://www.w3.org/1999/xlink" width="30px" height="16px" xmlns="http://www.w3.org/2000/svg">
  <g transform="matrix(1 0 0 1 -600 -1833 )">
    <path d="M 601 1836  A 2 2 0 0 1 603 1834 L 627 1834  A 2 2 0 0 1 629 1836 L 629 1846  A 2 2 0 0 1 627 1848 L 603 1848  A 2 2 0 0 1 601 1846 L 601 1836  Z " fill-rule="nonzero" fill="#ffffff" stroke="none" />
    <path d="M 600.5 1836  A 2.5 2.5 0 0 1 603 1833.5 L 627 1833.5  A 2.5 2.5 0 0 1 629.5 1836 L 629.5 1846  A 2.5 2.5 0 0 1 627 1848.5 L 603 1848.5  A 2.5 2.5 0 0 1 600.5 1846 L 600.5 1836  Z " stroke-width="1" stroke-dasharray="9,4" stroke="#ff0000" fill="none" stroke-dashoffset="0.5" />
  </g>
</svg>