<?xml version="1.0" encoding="utf-8"?>
<svg version="1.1" xmlns:xlink="http://www.w3.org/1999/xlink" width="38px" height="32px" xmlns="http://www.w3.org/2000/svg">
  <g transform="matrix(1 0 0 1 -974 -315 )">
    <path d="M 993 346.276668892305  C 985.6 338.554873164496  974.5 333.92179572781  974.5 326.2  C 974.5 322.225714285714  978.2 315.5  993 315.5  C 1007.8 315.5  1011.5 322.225714285714  1011.5 326.2  C 1011.5 333.92179572781  1000.4 338.554873164496  993 346.276668892305  Z " fill-rule="nonzero" fill="#6666ff" stroke="none" />
    <path d="M 993 347  C 985.4 339  974 334.2  974 326.2  C 974 322.04  977.8 315  993 315  C 1008.2 315  1012 322.04  1012 326.2  C 1012 334.2  1000.6 339  993 347  Z M 993 345.553337784611  C 1000.2 338.109746328991  1011 333.64359145562  1011 326.2  C 1011 322.411428571429  1007.4 316  993 316  C 978.6 316  975 322.411428571429  975 326.2  C 975 333.64359145562  985.8 338.109746328991  993 345.553337784611  Z " fill-rule="nonzero" fill="#6666ff" stroke="none" />
  </g>
</svg>