<?xml version="1.0" encoding="utf-8"?>
<svg version="1.1" xmlns:xlink="http://www.w3.org/1999/xlink" width="79px" height="28px" xmlns="http://www.w3.org/2000/svg">
  <g transform="matrix(1 0 0 1 -1391 -1354 )">
    <path d="M 1392 1364  A 9 9 0 0 1 1401 1355 L 1460 1355  A 9 9 0 0 1 1469 1364 L 1469 1372  A 9 9 0 0 1 1460 1381 L 1401 1381  A 9 9 0 0 1 1392 1372 L 1392 1364  Z " fill-rule="nonzero" fill="#ffffff" stroke="none" />
    <path d="M 1391.5 1364  A 9.5 9.5 0 0 1 1401 1354.5 L 1460 1354.5  A 9.5 9.5 0 0 1 1469.5 1364 L 1469.5 1372  A 9.5 9.5 0 0 1 1460 1381.5 L 1401 1381.5  A 9.5 9.5 0 0 1 1391.5 1372 L 1391.5 1364  Z " stroke-width="1" stroke-dasharray="9,4" stroke="#797979" fill="none" stroke-dashoffset="0.5" />
  </g>
</svg>