<?xml version="1.0" encoding="utf-8"?>
<svg version="1.1" xmlns:xlink="http://www.w3.org/1999/xlink" width="24px" height="32px" xmlns="http://www.w3.org/2000/svg">
  <g transform="matrix(1 0 0 1 -444 -499 )">
    <path d="M 456 530.036928468354  C 451.4 522.40734059591  444.5 517.829587872444  444.5 510.2  C 444.5 506.225714285714  446.8 499.5  456 499.5  C 465.2 499.5  467.5 506.225714285714  467.5 510.2  C 467.5 517.829587872444  460.6 522.40734059591  456 530.036928468354  Z " fill-rule="nonzero" fill="#6666ff" stroke="none" />
    <path d="M 456 531  C 451.2 523  444 518.2  444 510.2  C 444 506.04  446.4 499  456 499  C 465.6 499  468 506.04  468 510.2  C 468 518.2  460.8 523  456 531  Z M 456 529.073856936707  C 460.4 521.81468119182  467 517.459175744887  467 510.2  C 467 506.411428571429  464.8 500  456 500  C 447.2 500  445 506.411428571429  445 510.2  C 445 517.459175744887  451.6 521.81468119182  456 529.073856936707  Z " fill-rule="nonzero" fill="#6666ff" stroke="none" />
  </g>
</svg>