<?xml version="1.0" encoding="utf-8"?>
<svg version="1.1" xmlns:xlink="http://www.w3.org/1999/xlink" width="50px" height="50px" xmlns="http://www.w3.org/2000/svg">
  <g transform="matrix(1 0 0 1 -246 -315 )">
    <path d="M 271 315  C 285 315  296 326  296 340  C 296 354  285 365  271 365  C 257 365  246 354  246 340  C 246 326  257 315  271 315  Z " fill-rule="nonzero" fill="#f2f2f2" stroke="none" />
    <path d="M 271 315.5  C 284.72 315.5  295.5 326.28  295.5 340  C 295.5 353.72  284.72 364.5  271 364.5  C 257.28 364.5  246.5 353.72  246.5 340  C 246.5 326.28  257.28 315.5  271 315.5  Z " stroke-width="1" stroke="#797979" fill="none" />
  </g>
</svg>