<?xml version="1.0" encoding="utf-8"?>
<svg version="1.1" xmlns:xlink="http://www.w3.org/1999/xlink" width="30px" height="30px" xmlns="http://www.w3.org/2000/svg">
  <g transform="matrix(1 0 0 1 -42 -886 )">
    <path d="M 57 886  C 65.4 886  72 892.6  72 901  C 72 909.4  65.4 916  57 916  C 48.6 916  42 909.4  42 901  C 42 892.6  48.6 886  57 886  Z " fill-rule="nonzero" fill="#ffffff" stroke="none" />
    <path d="M 57 886.5  C 65.12 886.5  71.5 892.88  71.5 901  C 71.5 909.12  65.12 915.5  57 915.5  C 48.88 915.5  42.5 909.12  42.5 901  C 42.5 892.88  48.88 886.5  57 886.5  Z " stroke-width="1" stroke="#797979" fill="none" />
  </g>
</svg>