<?xml version="1.0" encoding="utf-8"?>
<svg version="1.1" xmlns:xlink="http://www.w3.org/1999/xlink" width="10px" height="11px" preserveAspectRatio="xMidYMin meet" viewBox="416 315  8 11" xmlns="http://www.w3.org/2000/svg">
  <path d="M 257 303  L 335 303  A 5 5 0 0 1 340 308 L 340 316  A 5 5 0 0 0 345 321 L 399.5 321  A 0.5 0.5 0 0 0 400 320.5 A 0.5 0.5 0 0 1 400.5 320 L 419.5 320  A 0.5 0.5 0 0 1 420 320.5 A 0.5 0.5 0 0 0 420.5 321 L 434 321  " stroke-width="2" stroke="#6666ff" fill="none" />
  <path d="M 428.892893218813 316.707106781187  L 433.185786437627 321  L 428.892893218813 325.292893218813  L 430.307106781187 326.707106781187  L 435.307106781187 321.707106781187  L 436.014213562373 321  L 435.307106781187 320.292893218813  L 430.307106781187 315.292893218813  L 428.892893218813 316.707106781187  Z " fill-rule="nonzero" fill="#6666ff" stroke="none" />
</svg>